<mxfile host="Electron" agent="Mozilla/5.0 (Windows NT 10.0; Win64; x64) AppleWebKit/537.36 (KHTML, like Gecko) draw.io/24.7.17 Chrome/128.0.6613.36 Electron/32.0.1 Safari/537.36" version="24.7.17">
  <diagram name="Page-1" id="U3Mqj2vIdye3vpzzuTG8">
    <mxGraphModel dx="1050" dy="669" grid="1" gridSize="10" guides="1" tooltips="1" connect="1" arrows="1" fold="1" page="1" pageScale="1" pageWidth="690" pageHeight="980" math="0" shadow="0">
      <root>
        <mxCell id="0" />
        <mxCell id="1" parent="0" />
        <mxCell id="UlxbuU1qcat0Let5cRCf-19" style="edgeStyle=orthogonalEdgeStyle;rounded=0;orthogonalLoop=1;jettySize=auto;html=1;entryX=0.5;entryY=0;entryDx=0;entryDy=0;" parent="1" source="UlxbuU1qcat0Let5cRCf-1" target="UlxbuU1qcat0Let5cRCf-18" edge="1">
          <mxGeometry relative="1" as="geometry" />
        </mxCell>
        <mxCell id="UlxbuU1qcat0Let5cRCf-1" value="start" style="ellipse;whiteSpace=wrap;html=1;" parent="1" vertex="1">
          <mxGeometry x="285" y="20" width="120" height="80" as="geometry" />
        </mxCell>
        <mxCell id="UlxbuU1qcat0Let5cRCf-7" value="" style="edgeStyle=orthogonalEdgeStyle;rounded=0;orthogonalLoop=1;jettySize=auto;html=1;" parent="1" source="UlxbuU1qcat0Let5cRCf-4" target="UlxbuU1qcat0Let5cRCf-6" edge="1">
          <mxGeometry relative="1" as="geometry" />
        </mxCell>
        <mxCell id="UlxbuU1qcat0Let5cRCf-4" value="pisahkan kalimat menjadi kata : [&quot;mari&quot;, &quot;pergi&quot;]" style="whiteSpace=wrap;html=1;" parent="1" vertex="1">
          <mxGeometry x="272" y="240" width="147" height="70" as="geometry" />
        </mxCell>
        <mxCell id="UlxbuU1qcat0Let5cRCf-9" value="" style="edgeStyle=orthogonalEdgeStyle;rounded=0;orthogonalLoop=1;jettySize=auto;html=1;" parent="1" source="UlxbuU1qcat0Let5cRCf-6" target="UlxbuU1qcat0Let5cRCf-8" edge="1">
          <mxGeometry relative="1" as="geometry" />
        </mxCell>
        <mxCell id="UlxbuU1qcat0Let5cRCf-6" value="untuk setiap kata, urutkan huruf menggunakan radix sort" style="whiteSpace=wrap;html=1;" parent="1" vertex="1">
          <mxGeometry x="255.75" y="340" width="179.5" height="80" as="geometry" />
        </mxCell>
        <mxCell id="UlxbuU1qcat0Let5cRCf-11" value="" style="edgeStyle=orthogonalEdgeStyle;rounded=0;orthogonalLoop=1;jettySize=auto;html=1;" parent="1" source="UlxbuU1qcat0Let5cRCf-8" target="UlxbuU1qcat0Let5cRCf-10" edge="1">
          <mxGeometry relative="1" as="geometry" />
        </mxCell>
        <mxCell id="UlxbuU1qcat0Let5cRCf-8" value="tentukan panjang kata terpanjang" style="whiteSpace=wrap;html=1;" parent="1" vertex="1">
          <mxGeometry x="240.5" y="465" width="210" height="50" as="geometry" />
        </mxCell>
        <mxCell id="H6hq1mSrRHLlwJ1gJydS-2" value="" style="edgeStyle=orthogonalEdgeStyle;rounded=0;orthogonalLoop=1;jettySize=auto;html=1;" edge="1" parent="1" source="UlxbuU1qcat0Let5cRCf-10" target="H6hq1mSrRHLlwJ1gJydS-1">
          <mxGeometry relative="1" as="geometry" />
        </mxCell>
        <mxCell id="UlxbuU1qcat0Let5cRCf-10" value="untuk setiap karakter (place) dari kanan ke kiri" style="whiteSpace=wrap;html=1;" parent="1" vertex="1">
          <mxGeometry x="277" y="550" width="137" height="60" as="geometry" />
        </mxCell>
        <mxCell id="H6hq1mSrRHLlwJ1gJydS-21" value="" style="edgeStyle=orthogonalEdgeStyle;rounded=0;orthogonalLoop=1;jettySize=auto;html=1;" edge="1" parent="1" source="UlxbuU1qcat0Let5cRCf-12" target="UlxbuU1qcat0Let5cRCf-14">
          <mxGeometry relative="1" as="geometry" />
        </mxCell>
        <mxCell id="UlxbuU1qcat0Let5cRCf-12" value="output kalimat &quot;aimr egipr&quot;" style="shape=parallelogram;perimeter=parallelogramPerimeter;whiteSpace=wrap;html=1;fixedSize=1;" parent="1" vertex="1">
          <mxGeometry x="260" y="1400" width="170" height="70" as="geometry" />
        </mxCell>
        <mxCell id="UlxbuU1qcat0Let5cRCf-14" value="end" style="ellipse;whiteSpace=wrap;html=1;" parent="1" vertex="1">
          <mxGeometry x="285.5" y="1530" width="120" height="80" as="geometry" />
        </mxCell>
        <mxCell id="UlxbuU1qcat0Let5cRCf-16" value="" style="endArrow=classic;html=1;rounded=0;exitX=1;exitY=1;exitDx=0;exitDy=0;" parent="1" source="UlxbuU1qcat0Let5cRCf-12" edge="1">
          <mxGeometry width="50" height="50" relative="1" as="geometry">
            <mxPoint x="300" y="720" as="sourcePoint" />
            <mxPoint x="460" y="1463" as="targetPoint" />
          </mxGeometry>
        </mxCell>
        <mxCell id="UlxbuU1qcat0Let5cRCf-17" value="" style="endArrow=classic;html=1;rounded=0;entryX=0;entryY=0;entryDx=0;entryDy=0;" parent="1" target="UlxbuU1qcat0Let5cRCf-18" edge="1">
          <mxGeometry width="50" height="50" relative="1" as="geometry">
            <mxPoint x="220" y="150" as="sourcePoint" />
            <mxPoint x="350" y="440" as="targetPoint" />
          </mxGeometry>
        </mxCell>
        <mxCell id="UlxbuU1qcat0Let5cRCf-21" value="" style="edgeStyle=orthogonalEdgeStyle;rounded=0;orthogonalLoop=1;jettySize=auto;html=1;" parent="1" source="UlxbuU1qcat0Let5cRCf-18" target="UlxbuU1qcat0Let5cRCf-4" edge="1">
          <mxGeometry relative="1" as="geometry" />
        </mxCell>
        <mxCell id="UlxbuU1qcat0Let5cRCf-18" value="input kalimat &quot;mari pergi&quot;" style="shape=parallelogram;perimeter=parallelogramPerimeter;whiteSpace=wrap;html=1;fixedSize=1;" parent="1" vertex="1">
          <mxGeometry x="280" y="140" width="130" height="70" as="geometry" />
        </mxCell>
        <mxCell id="H6hq1mSrRHLlwJ1gJydS-4" value="" style="edgeStyle=orthogonalEdgeStyle;rounded=0;orthogonalLoop=1;jettySize=auto;html=1;" edge="1" parent="1" source="H6hq1mSrRHLlwJ1gJydS-1" target="H6hq1mSrRHLlwJ1gJydS-3">
          <mxGeometry relative="1" as="geometry" />
        </mxCell>
        <mxCell id="H6hq1mSrRHLlwJ1gJydS-1" value="hitung frekuensi karakter ke-place" style="whiteSpace=wrap;html=1;" vertex="1" parent="1">
          <mxGeometry x="285.5" y="650" width="120" height="60" as="geometry" />
        </mxCell>
        <mxCell id="H6hq1mSrRHLlwJ1gJydS-6" value="" style="edgeStyle=orthogonalEdgeStyle;rounded=0;orthogonalLoop=1;jettySize=auto;html=1;" edge="1" parent="1" source="H6hq1mSrRHLlwJ1gJydS-3" target="H6hq1mSrRHLlwJ1gJydS-5">
          <mxGeometry relative="1" as="geometry" />
        </mxCell>
        <mxCell id="H6hq1mSrRHLlwJ1gJydS-3" value="akumulasi frekuensi" style="whiteSpace=wrap;html=1;" vertex="1" parent="1">
          <mxGeometry x="285" y="740" width="120" height="60" as="geometry" />
        </mxCell>
        <mxCell id="H6hq1mSrRHLlwJ1gJydS-8" value="" style="edgeStyle=orthogonalEdgeStyle;rounded=0;orthogonalLoop=1;jettySize=auto;html=1;" edge="1" parent="1" source="H6hq1mSrRHLlwJ1gJydS-5" target="H6hq1mSrRHLlwJ1gJydS-7">
          <mxGeometry relative="1" as="geometry" />
        </mxCell>
        <mxCell id="H6hq1mSrRHLlwJ1gJydS-5" value="pindahkan huruf ke array output" style="whiteSpace=wrap;html=1;" vertex="1" parent="1">
          <mxGeometry x="285.5" y="830" width="120" height="60" as="geometry" />
        </mxCell>
        <mxCell id="H6hq1mSrRHLlwJ1gJydS-10" value="" style="edgeStyle=orthogonalEdgeStyle;rounded=0;orthogonalLoop=1;jettySize=auto;html=1;" edge="1" parent="1" source="H6hq1mSrRHLlwJ1gJydS-7" target="H6hq1mSrRHLlwJ1gJydS-9">
          <mxGeometry relative="1" as="geometry" />
        </mxCell>
        <mxCell id="H6hq1mSrRHLlwJ1gJydS-7" value="salin output ke array asli" style="whiteSpace=wrap;html=1;" vertex="1" parent="1">
          <mxGeometry x="285" y="930" width="120" height="60" as="geometry" />
        </mxCell>
        <mxCell id="H6hq1mSrRHLlwJ1gJydS-12" value="" style="edgeStyle=orthogonalEdgeStyle;rounded=0;orthogonalLoop=1;jettySize=auto;html=1;" edge="1" parent="1" source="H6hq1mSrRHLlwJ1gJydS-9" target="H6hq1mSrRHLlwJ1gJydS-11">
          <mxGeometry relative="1" as="geometry" />
        </mxCell>
        <mxCell id="H6hq1mSrRHLlwJ1gJydS-16" value="" style="edgeStyle=orthogonalEdgeStyle;rounded=0;orthogonalLoop=1;jettySize=auto;html=1;" edge="1" parent="1" source="H6hq1mSrRHLlwJ1gJydS-9" target="H6hq1mSrRHLlwJ1gJydS-15">
          <mxGeometry relative="1" as="geometry" />
        </mxCell>
        <mxCell id="H6hq1mSrRHLlwJ1gJydS-17" value="No" style="edgeLabel;html=1;align=center;verticalAlign=middle;resizable=0;points=[];" vertex="1" connectable="0" parent="H6hq1mSrRHLlwJ1gJydS-16">
          <mxGeometry x="-0.8" y="4" relative="1" as="geometry">
            <mxPoint x="11" as="offset" />
          </mxGeometry>
        </mxCell>
        <mxCell id="H6hq1mSrRHLlwJ1gJydS-9" value="apakah place &amp;lt; panjangmaks?" style="rhombus;whiteSpace=wrap;html=1;" vertex="1" parent="1">
          <mxGeometry x="288" y="1020" width="115" height="120" as="geometry" />
        </mxCell>
        <mxCell id="H6hq1mSrRHLlwJ1gJydS-14" style="edgeStyle=orthogonalEdgeStyle;rounded=0;orthogonalLoop=1;jettySize=auto;html=1;entryX=0;entryY=0.5;entryDx=0;entryDy=0;" edge="1" parent="1" source="H6hq1mSrRHLlwJ1gJydS-11" target="UlxbuU1qcat0Let5cRCf-10">
          <mxGeometry relative="1" as="geometry">
            <Array as="points">
              <mxPoint x="170" y="580" />
            </Array>
          </mxGeometry>
        </mxCell>
        <mxCell id="H6hq1mSrRHLlwJ1gJydS-11" value="untuk setiap karakter (place)" style="whiteSpace=wrap;html=1;" vertex="1" parent="1">
          <mxGeometry x="110" y="1050" width="120" height="60" as="geometry" />
        </mxCell>
        <mxCell id="H6hq1mSrRHLlwJ1gJydS-13" value="yes" style="text;html=1;align=center;verticalAlign=middle;resizable=0;points=[];autosize=1;strokeColor=none;fillColor=none;" vertex="1" parent="1">
          <mxGeometry x="240" y="1050" width="40" height="30" as="geometry" />
        </mxCell>
        <mxCell id="H6hq1mSrRHLlwJ1gJydS-19" value="" style="edgeStyle=orthogonalEdgeStyle;rounded=0;orthogonalLoop=1;jettySize=auto;html=1;" edge="1" parent="1" source="H6hq1mSrRHLlwJ1gJydS-15" target="H6hq1mSrRHLlwJ1gJydS-18">
          <mxGeometry relative="1" as="geometry" />
        </mxCell>
        <mxCell id="H6hq1mSrRHLlwJ1gJydS-15" value="gabungkan kata yang sudah diurutkan : [&quot;aimr&quot;, &quot;egipr&quot;]" style="whiteSpace=wrap;html=1;" vertex="1" parent="1">
          <mxGeometry x="285.5" y="1190" width="120" height="60" as="geometry" />
        </mxCell>
        <mxCell id="H6hq1mSrRHLlwJ1gJydS-20" value="" style="edgeStyle=orthogonalEdgeStyle;rounded=0;orthogonalLoop=1;jettySize=auto;html=1;" edge="1" parent="1" source="H6hq1mSrRHLlwJ1gJydS-18" target="UlxbuU1qcat0Let5cRCf-12">
          <mxGeometry relative="1" as="geometry" />
        </mxCell>
        <mxCell id="H6hq1mSrRHLlwJ1gJydS-18" value="gabung kata menjadi kalimat &quot;aimr egipr&quot;" style="whiteSpace=wrap;html=1;" vertex="1" parent="1">
          <mxGeometry x="285.5" y="1300" width="120" height="60" as="geometry" />
        </mxCell>
      </root>
    </mxGraphModel>
  </diagram>
</mxfile>
